<svg width="381" height="268" viewBox="0 0 381 268" fill="none" xmlns="http://www.w3.org/2000/svg">
<path d="M2 51.7502H300.498V266.994H2V51.7502Z" fill="white"/>
<path d="M2.28223 52H300.121L378.621 1.00002H79.6215L2.28223 52Z" fill="#FFD8AA" stroke="white"/>
<path d="M379.121 1L300.121 52L300.621 266.5L379.121 213V1Z" fill="#FCCA90" stroke="white"/>
<path fill-rule="evenodd" clip-rule="evenodd" d="M284.64 220.003H247.64V257.003H284.64V220.003ZM266.701 249.063L276.247 239.517C276.833 238.932 276.833 237.982 276.247 237.396C275.661 236.81 274.711 236.81 274.126 237.396L267.14 244.381V229.003H264.14V244.381L257.155 237.396C256.569 236.81 255.62 236.81 255.034 237.396C254.448 237.982 254.448 238.932 255.034 239.517L264.58 249.063C265.166 249.649 266.115 249.649 266.701 249.063Z" fill="#FF4200" fill-opacity="0.78"/>
</svg>
